<?xml version="1.0" encoding="UTF-8"?>
<svg id="Layer_1" xmlns="http://www.w3.org/2000/svg" version="1.1" viewBox="0 0 300 300">
  <!-- Generator: Adobe Illustrator 29.7.1, SVG Export Plug-In . SVG Version: 2.1.1 Build 8)  -->
  <defs>
    <style>
      .st0 {
        fill: #fff;
      }
    </style>
  </defs>
  <path class="st0" d="M293.89,27.69v8.94l-143.89,143.89v-61.05L257.05,12.43c3.91-3.91,9.3-6.32,15.26-6.32s11.36,2.42,15.26,6.32c3.91,3.91,6.32,9.3,6.32,15.26Z"/>
  <path class="st0" d="M293.89,77.32v194.99c0,11.92-9.66,21.58-21.59,21.58h-21.59v-70.2l-43.17,43.17v27.03h-21.59c-11.92,0-21.59-9.66-21.59-21.58v-65.48l43.17-43.17v42.15l43.17-43.17v-42.15l43.17-43.17Z"/>
  <path class="st0" d="M49.27,79.8v40.7l43.17,43.16,12.64,12.64,30.52,30.53v65.48c0,9.82-6.56,18.11-15.54,20.72-1.92.56-3.94.86-6.04.86H27.69c-11.92,0-21.58-9.66-21.58-21.58v-93.24l43.17,43.17v28.48h43.17v-26.01L6.11,138.38V27.97c0-11.87,9.47-21.73,21.33-21.86,6.06-.07,11.55,2.36,15.51,6.32l107.05,107.05v61.05L49.27,79.8Z"/>
</svg>